# Blender v2.79 (sub 0) OBJ File: ''
# www.blender.org
mtllib BATMAN TOKEN.mtl
o Barony
v 1.003148 0.057048 -1.130063
v 0.624560 0.057048 1.316112
v 1.003148 0.057048 1.124613
v 0.655142 0.057048 1.316112
v 0.624560 0.057048 1.316112
v 0.655142 0.057048 1.316112
v 1.003148 0.057048 1.124613
v 1.003148 0.057048 -1.130063
v 0.702557 0.057048 -1.309177
v -1.299240 0.057048 -0.202923
v -1.299240 0.057048 0.186900
v 0.702557 0.057048 -1.309177
v -1.299240 0.057048 -0.202923
v -1.299240 0.057048 0.186900
v -1.299240 0.157048 0.186900
v 0.624560 0.157048 1.316112
v 1.003148 0.157048 1.124613
v 1.003148 0.157048 -1.130063
v -1.299240 0.157048 -0.202923
v 0.702557 0.157048 -1.309177
v 0.655142 0.157048 1.316112
vt 0.118152 0.406629
vt 0.118152 0.406629
vt 0.118152 0.406629
vt 0.626762 0.255564
vt 0.629175 0.189584
vt 0.933862 0.425276
vt 0.564275 0.661523
vt 0.554683 0.550894
vt 0.564275 0.550894
vt 0.118152 0.406629
vt 0.118152 0.406629
vt 0.118152 0.406629
vt 0.118152 0.406629
vt 0.118152 0.406629
vt 0.118152 0.406629
vt 0.118152 0.406629
vt 0.118152 0.406629
vt 0.118152 0.406629
vt 0.118152 0.406629
vt 0.118152 0.406629
vt 0.995928 0.605704
vt 0.636221 0.818673
vt 0.947836 0.577619
vt 0.564275 0.517332
vt 0.554683 0.406629
vt 0.564275 0.406629
vt 0.573867 0.595035
vt 0.564275 0.592102
vt 0.573867 0.592102
vt 0.554683 0.517332
vt 0.573867 0.628252
vt 0.564275 0.595035
vt 0.127744 0.698408
vt 0.118152 0.661017
vt 0.127744 0.661017
vt 0.564275 0.406629
vt 0.573867 0.406629
vt 0.554683 0.661523
vt 0.564275 0.628252
vt 0.118152 0.698408
vt 0.633752 0.751192
vt 0.995928 0.969724
vt 0.941624 0.999734
vt 0.633866 0.814412
vt 0.980884 0.397816
vt 0.626874 0.193749
vt 0.927788 0.012549
vt 0.980884 0.041891
vn 0.0000 0.0000 1.0000
vn 0.0000 -1.0000 0.0000
vn -0.4837 0.0000 -0.8752
vn 0.0000 1.0000 0.0000
vn 1.0000 0.0000 0.0000
vn 0.5119 0.0000 -0.8591
vn 0.4821 0.0000 0.8761
vn -1.0000 0.0000 -0.0000
vn -0.5062 0.0000 0.8624
usemtl Barony
s off
f 9/1/1 13/2/1 12/3/1
f 7/4/2 5/5/2 8/6/2
f 13/7/3 20/8/3 12/9/3
f 7/10/1 1/11/1 3/12/1
f 5/13/1 4/14/1 2/15/1
f 6/16/1 3/12/1 4/14/1
f 10/17/1 14/18/1 13/2/1
f 8/19/1 12/3/1 1/11/1
f 11/20/1 2/15/1 14/18/1
f 20/21/4 16/22/4 18/23/4
f 1/24/5 17/25/5 3/26/5
f 4/27/1 16/28/1 2/29/1
f 12/9/6 18/30/6 1/24/6
f 3/31/7 21/32/7 4/27/7
f 14/33/8 19/34/8 13/35/8
f 2/29/9 15/36/9 14/37/9
f 9/1/1 10/17/1 13/2/1
f 13/7/3 19/38/3 20/8/3
f 7/10/1 8/19/1 1/11/1
f 5/13/1 6/16/1 4/14/1
f 6/16/1 7/10/1 3/12/1
f 10/17/1 11/20/1 14/18/1
f 8/19/1 9/1/1 12/3/1
f 11/20/1 5/13/1 2/15/1
f 1/24/5 18/30/5 17/25/5
f 4/27/1 21/32/1 16/28/1
f 12/9/6 20/8/6 18/30/6
f 3/31/7 17/39/7 21/32/7
f 14/33/8 15/40/8 19/34/8
f 2/29/9 16/28/9 15/36/9
f 17/41/4 18/23/4 16/22/4
f 20/21/4 19/42/4 16/22/4
f 15/43/4 16/22/4 19/42/4
f 21/44/4 17/41/4 16/22/4
f 9/45/2 8/6/2 5/5/2
f 7/4/2 6/46/2 5/5/2
f 5/5/2 11/47/2 10/48/2
f 10/48/2 9/45/2 5/5/2
