# Exported from Wings 3D 1.5.3
mtllib DreadnaughtCollision.mtl
o Cylinder11
#24 vertices, 22 faces
v 0.60605931 -0.13131356 0.20000000
v 0.60605931 8.1845283e-2 2.7408412e-2
v 0.60605931 8.1845283e-2 -2.0591588e-2
v 0.60605931 -0.13131356 -0.20000000
v -0.61574637 -0.13131356 0.44353186
v -0.38214084 0.36116824 6.0956542e-2
v -0.38214084 0.36116824 -2.5858651e-2
v -0.61574637 -0.13131356 -0.46505868
v 0.70351103 -0.13131356 0.20000000
v 0.70351103 -0.13131356 -0.20000000
v 0.70351103 5.9112968e-2 -2.0591588e-2
v 0.70351103 5.9112968e-2 2.7408412e-2
v 0.79872429 -3.6100298e-2 4.2456679e-2
v 0.79872429 -3.6100298e-2 -4.2456679e-2
v 0.79872429 -3.6100298e-2 -4.2456679e-2
v 0.79872429 -3.6100298e-2 4.2456679e-2
v -0.61574637 -0.13131356 0.44353186
v -0.55374915 0.21832663 0.19431924
v -0.55374915 0.21832663 -0.16741073
v -0.61574637 -0.13131356 -0.46505868
v -0.72657184 -4.0476145e-2 9.4695217e-2
v -0.71364489 7.9958008e-2 4.2732270e-2
v -0.71364489 7.9958008e-2 -3.2607600e-2
v -0.72657184 -4.0476145e-2 -9.4669725e-2
vn 0.14114992 -0.44246766 0.88560661
vn 0.20769296 0.87711096 0.43305888
vn 0.20606857 0.88536304 -0.41673496
vn 0.14702618 -0.42539698 -0.89298416
vn 0.21029513 7.4447943e-2 0.97479919
vn -5.7515058e-3 0.87004809 0.49293330
vn -2.7222595e-2 0.88879310 -0.45749946
vn 0.17503272 0.15859202 -0.97170578
vn 0.64979416 -0.24178304 0.72063063
vn 0.64931184 -0.22738752 -0.72573346
vn 0.41113239 0.82459682 -0.38860036
vn 0.41917930 0.81784757 0.39422590
vn 0.87516436 -8.7945244e-2 0.47576567
vn 0.87257258 -7.3513774e-2 -0.48292113
vn 0.62297802 0.70215542 -0.34478421
vn 0.63567317 0.69028999 0.34557105
vn -0.71978492 9.5484972e-2 0.68759894
vn -0.57611202 0.73221740 0.36325282
vn -0.57628086 0.74577368 -0.33424841
vn -0.74608444 0.16222288 -0.64578770
vn -0.98048773 -0.10944467 0.16329628
vn -0.88207017 0.44802528 0.14568994
vn -0.87627053 0.46089336 -0.14045382
vn -0.98273426 -9.4886879e-2 -0.15883906
g Cylinder11_default
usemtl default
s 1
f 1//1 9//9 12//12 2//2
f 2//2 6//6 5//5 1//1
f 2//2 12//12 11//11 3//3
f 3//3 7//7 6//6 2//2
f 3//3 11//11 10//10 4//4
f 4//4 8//8 7//7 3//3
f 4//4 10//10 9//9 1//1
f 5//5 8//8 4//4 1//1
f 5//5 17//17 20//20 8//8
f 6//6 18//18 17//17 5//5
f 7//7 19//19 18//18 6//6
f 8//8 20//20 19//19 7//7
f 10//10 11//11 15//15 14//14
f 11//11 12//12 16//16 15//15
f 12//12 9//9 13//13 16//16
f 14//14 13//13 9//9 10//10
f 14//14 15//15 16//16 13//13
f 18//18 19//19 23//23 22//22
f 19//19 20//20 24//24 23//23
f 20//20 17//17 21//21 24//24
f 22//22 21//21 17//17 18//18
f 22//22 23//23 24//24 21//21
