# Blender v2.79 (sub 0) OBJ File: ''
# www.blender.org
mtllib Flag2.mtl
o Flag_Barony
v 1.473093 0.000000 -1.254858
v 1.857529 0.200000 -0.908434
v 1.857529 0.000000 -0.908434
v 0.071367 0.000000 -0.818329
v 0.424905 0.200000 -1.224704
v 0.424905 0.000000 -1.224704
v 0.161228 0.200000 1.557064
v 0.513889 0.200000 1.894009
v 1.954763 0.200000 1.501159
v 0.161228 -0.000000 1.557064
v 1.954763 -0.000000 1.501159
v 0.513889 -0.000000 1.894009
v 1.616819 0.200000 1.883758
v 1.616819 -0.000000 1.883758
v 1.473093 0.200000 -1.254858
v 0.071367 0.200000 -0.818329
vt 0.047389 0.899746
vt 0.065511 0.935320
vt 0.046700 0.934952
vt 0.049991 0.766782
vt 0.068130 0.801487
vt 0.049319 0.801119
vt 0.300730 0.798190
vt 0.213952 0.684802
vt 0.272998 0.177680
vt 0.861419 0.761814
vt 0.304160 0.789660
vt 0.839283 0.141024
vt 0.033870 0.628936
vt 0.051783 0.675179
vt 0.032972 0.674811
vt 0.072007 0.603347
vt 0.054136 0.554966
vt 0.072946 0.555334
vt 0.068802 0.767150
vt 0.053196 0.602978
vt 0.066200 0.900114
vt 0.048644 0.835627
vt 0.029833 0.835259
vt 0.035325 0.554598
vt 0.052681 0.629304
vt 0.068802 0.767150
vt 0.838418 0.151531
vt 0.857989 0.770343
vt 0.928134 0.275652
vt 0.944931 0.638232
vt 0.191259 0.303820
vt 0.194627 0.303948
vt 0.274031 0.171376
vt 0.930809 0.258505
vt 0.938757 0.640224
vt 0.206972 0.666750
vt 0.049991 0.766782
vn 0.6694 0.0000 -0.7429
vn -0.7545 0.0000 -0.6564
vn -0.0000 1.0000 0.0000
vn -0.0000 -1.0000 -0.0000
vn -0.6908 0.0000 0.7230
vn 0.7495 0.0000 0.6620
vn 0.9992 0.0000 -0.0403
vn -0.0288 0.0000 -0.9996
vn -0.9993 0.0000 0.0378
vn 0.0093 0.0000 1.0000
usemtl Flag_Barony
s 1
f 1/1/1 2/2/1 3/3/1
f 4/4/2 5/5/2 6/6/2
f 7/7/3 8/8/3 9/9/3
f 10/10/4 4/11/4 11/12/4
f 12/13/5 7/14/5 10/15/5
f 11/16/6 13/17/6 14/18/6
f 3/19/7 9/20/7 11/16/7
f 6/6/8 15/21/8 1/1/8
f 10/15/9 16/22/9 4/23/9
f 14/24/10 8/25/10 12/13/10
f 1/1/1 15/21/1 2/2/1
f 4/4/2 16/26/2 5/5/2
f 9/9/3 2/27/3 16/28/3
f 15/29/3 5/30/3 16/28/3
f 16/28/3 7/7/3 9/9/3
f 8/8/3 13/31/3 9/9/3
f 2/27/3 15/29/3 16/28/3
f 1/32/4 3/33/4 4/11/4
f 11/12/4 14/34/4 12/35/4
f 12/35/4 10/10/4 11/12/4
f 4/11/4 6/36/4 1/32/4
f 3/33/4 11/12/4 4/11/4
f 12/13/5 8/25/5 7/14/5
f 11/16/6 9/20/6 13/17/6
f 3/19/7 2/37/7 9/20/7
f 6/6/8 5/5/8 15/21/8
f 10/15/9 7/14/9 16/22/9
f 14/24/10 13/17/10 8/25/10
