# Blender v2.79 (sub 0) OBJ File: ''
# www.blender.org
mtllib PlanetTile.mtl
o Arnor_Lor
v -2.658776 0.016962 -0.037608
v -1.321790 0.016961 2.239813
v -2.658776 0.016962 -0.037608
v -1.321790 0.016961 2.239813
v 1.301748 0.016962 -2.306581
v -1.370388 0.016962 -2.317641
v -2.658776 0.016962 -0.037608
v -1.370388 0.016962 -2.317641
v 1.301748 0.016962 -2.306581
v 1.274758 0.016961 2.239813
v 2.596948 0.016962 -0.044002
v 1.274758 0.016961 2.239813
v -1.370388 0.016962 -2.317641
v 2.596948 0.016962 -0.044002
v 1.274758 0.016961 2.239813
v -1.321790 0.316961 2.239813
v -1.321790 0.016961 2.239813
v 1.301748 0.016962 -2.306581
v 2.596948 0.016962 -0.044002
v 1.301748 0.316962 -2.306581
v 2.596948 0.316962 -0.044002
v -1.370388 0.316962 -2.317641
v -2.658776 0.316962 -0.037608
v 1.274758 0.316961 2.239813
vt 1.030000 0.000000
vt 1.030000 0.000000
vt 1.030000 0.000000
vt 0.856616 0.986620
vt 0.576113 0.988924
vt 0.577269 0.504092
vt 1.030000 0.000000
vt 1.030000 0.000000
vt 1.030000 0.000000
vt 1.030000 0.000000
vt 1.030000 0.000000
vt 1.030000 0.000000
vt 1.030000 0.000000
vt 1.030000 0.000000
vt 1.030000 0.000000
vt 1.030000 0.000000
vt 1.030000 0.000000
vt 0.126901 0.507078
vt 0.135824 0.584310
vt 0.126901 0.584310
vt 1.030000 0.000000
vt 1.030000 0.000000
vt 1.030000 0.000000
vt 1.030000 0.000000
vt 0.862619 0.488210
vt 0.579703 0.007767
vt 0.998073 0.246677
vt 0.135824 0.507078
vt 0.144747 0.584974
vt 0.135824 0.584974
vt 0.127678 0.532758
vt 0.133292 0.581542
vt 0.127678 0.581542
vt 0.127678 0.507737
vt 0.133292 0.532758
vt 0.135824 0.624077
vt 0.126901 0.624077
vt 0.133292 0.606339
vt 0.127678 0.606339
vt 0.854190 0.504847
vt 0.994289 0.747633
vt 0.434570 0.749450
vt 0.135824 0.507078
vt 0.855498 0.005337
vt 0.578806 0.491886
vt 0.439826 0.250916
vt 0.144747 0.507078
vt 0.133292 0.507737
vn 0.0000 0.0000 1.0000
vn 0.0000 -1.0000 -0.0000
vn 0.0000 1.0000 0.0000
vn -0.8706 0.0000 -0.4920
vn 0.8679 0.0000 -0.4968
vn 0.0041 0.0000 -1.0000
vn -0.8624 0.0000 0.5063
vn 0.8654 0.0000 0.5010
usemtl Arnor_Lor
s 1
f 1/1/1 2/2/1 3/3/1
f 4/4/2 1/5/2 5/6/2
f 6/7/1 7/8/1 8/9/1
f 5/10/1 6/7/1 9/11/1
f 10/12/1 11/13/1 12/14/1
f 13/15/1 3/3/1 6/7/1
f 14/16/1 9/11/1 11/13/1
f 4/17/1 12/14/1 2/2/1
f 15/18/1 16/19/1 17/20/1
f 11/13/1 18/21/1 19/22/1
f 2/2/1 15/23/1 17/24/1
f 9/11/1 8/9/1 18/21/1
f 3/3/1 17/24/1 7/8/1
f 12/14/1 19/22/1 15/23/1
f 20/25/3 16/26/3 21/27/3
f 7/28/4 22/29/4 8/30/4
f 18/31/5 21/32/5 19/33/5
f 8/34/6 20/35/6 18/31/6
f 17/20/7 23/36/7 7/37/7
f 19/33/8 24/38/8 15/39/8
f 1/1/1 4/17/1 2/2/1
f 5/6/2 14/40/2 4/4/2
f 10/41/2 4/4/2 14/40/2
f 1/5/2 13/42/2 5/6/2
f 6/7/1 3/3/1 7/8/1
f 5/10/1 13/15/1 6/7/1
f 10/12/1 14/16/1 11/13/1
f 13/15/1 1/1/1 3/3/1
f 14/16/1 5/10/1 9/11/1
f 4/17/1 10/12/1 12/14/1
f 15/18/1 24/43/1 16/19/1
f 11/13/1 9/11/1 18/21/1
f 2/2/1 12/14/1 15/23/1
f 9/11/1 6/7/1 8/9/1
f 3/3/1 2/2/1 17/24/1
f 12/14/1 11/13/1 19/22/1
f 24/44/3 21/27/3 16/26/3
f 20/25/3 22/45/3 23/46/3
f 23/46/3 16/26/3 20/25/3
f 7/28/4 23/47/4 22/29/4
f 18/31/5 20/35/5 21/32/5
f 8/34/6 22/48/6 20/35/6
f 17/20/7 16/19/7 23/36/7
f 19/33/8 21/32/8 24/38/8
