# Blender v2.79 (sub 0) OBJ File: ''
# www.blender.org
mtllib Speaker.mtl
o Speaker
v -0.014329 0.007069 -0.740670
v 1.227557 0.007324 -0.486371
v -0.011124 0.006289 0.729088
v 1.227557 0.007324 -0.486371
v -0.014329 0.007069 -0.740670
v 1.227557 0.007324 -0.486371
v -1.258008 0.006567 -0.529544
v -1.268954 0.006025 0.484358
v -1.258008 0.006567 -0.529544
v -0.014329 0.007069 -0.740670
v 1.217837 0.006787 0.517160
v -0.011124 0.006289 0.729088
v -1.268954 0.006025 0.484358
v 1.217837 0.006787 0.517160
v 1.217821 0.056787 0.517187
v 1.217837 0.006787 0.517160
v -0.011124 0.006289 0.729088
v -1.268954 0.006025 0.484358
v -1.258008 0.006567 -0.529544
v -0.011140 0.056289 0.729115
v -0.014344 0.057069 -0.740644
v -1.268970 0.056025 0.484384
v -1.258024 0.056567 -0.529518
v 1.227541 0.057324 -0.486345
vt 0.506589 0.515636
vt 0.941698 0.582378
vt 0.522388 0.964189
vt 1.010784 0.037423
vt 1.010784 0.037423
vt 1.010784 0.037423
vt 1.010784 0.037423
vt 1.010784 0.037423
vt 1.010784 0.037423
vt 1.010784 0.037423
vt 1.010784 0.037423
vt 1.010784 0.037423
vt 1.010784 0.037423
vt 1.010784 0.037423
vt 1.010784 0.037423
vt 1.010784 0.037423
vt 1.010784 0.037423
vt 0.823308 0.505509
vt 0.900748 0.499528
vt 0.900896 0.502915
vt 1.010784 0.037423
vt 1.010784 0.037423
vt 1.010784 0.037423
vt 1.010784 0.037423
vt 0.494367 0.022620
vt 0.511138 0.483010
vt 0.047729 0.112710
vt 0.900896 0.502915
vt 0.979139 0.496906
vt 0.979286 0.500293
vt 0.883131 0.496725
vt 0.786948 0.503333
vt 0.786800 0.499946
vt 0.786718 0.499949
vt 0.881402 0.493390
vt 0.881550 0.496778
vt 0.978844 0.490132
vt 0.978991 0.493519
vt 0.978991 0.493519
vt 0.883278 0.500112
vt 0.823160 0.502122
vt 0.900748 0.499528
vt 0.786571 0.496562
vt 0.081821 0.900506
vt 0.075505 0.590960
vt 0.948338 0.888749
vt 0.064001 0.430165
vt 0.936252 0.075873
vt 0.951960 0.390093
vn 0.0003 -1.0000 -0.0005
vn 0.0000 0.0000 1.0000
vn 0.0000 0.0000 0.0000
vn 1.0000 0.0003 0.0097
vn -0.0003 1.0000 0.0005
vn -0.9999 -0.0003 -0.0108
vn 0.2006 0.0006 -0.9797
vn 0.1699 -0.0005 0.9855
vn -0.1910 -0.0006 0.9816
vn -0.1674 0.0005 -0.9859
usemtl Speaker
s 1
f 1/1/1 2/2/1 3/3/1
f 4/4/2 5/5/2 6/6/3
f 7/7/3 8/8/3 9/9/2
f 2/10/3 10/11/2 4/4/2
f 3/12/2 11/13/2 12/14/2
f 13/15/3 12/14/2 8/8/3
f 1/16/2 9/9/2 10/11/2
f 14/17/3 4/4/2 11/13/2
f 6/18/4 15/19/4 16/20/4
f 12/14/2 16/21/3 17/22/2
f 8/8/3 17/22/2 18/23/3
f 10/11/2 19/24/3 5/5/2
f 11/13/2 6/6/3 16/21/3
f 9/9/2 18/23/3 19/24/3
f 20/25/5 21/26/5 22/27/5
f 18/28/6 23/29/6 19/30/6
f 5/31/7 24/32/7 6/33/7
f 16/34/8 20/35/8 17/36/8
f 17/36/9 22/37/9 18/38/9
f 19/39/10 21/40/10 5/31/10
f 6/18/4 24/41/4 15/19/4
f 18/28/6 22/42/6 23/29/6
f 5/31/7 21/40/7 24/32/7
f 16/34/8 15/43/8 20/35/8
f 17/36/9 20/35/9 22/37/9
f 19/39/10 23/29/10 21/40/10
f 3/3/1 13/44/1 1/1/1
f 7/45/1 1/1/1 13/44/1
f 2/2/1 14/46/1 3/3/1
f 4/4/2 10/11/2 5/5/2
f 7/7/3 13/15/3 8/8/3
f 2/10/3 1/16/2 10/11/2
f 3/12/2 14/17/3 11/13/2
f 13/15/3 3/12/2 12/14/2
f 1/16/2 7/7/3 9/9/2
f 14/17/3 2/10/3 4/4/2
f 12/14/2 11/13/2 16/21/3
f 8/8/3 12/14/2 17/22/2
f 10/11/2 9/9/2 19/24/3
f 11/13/2 4/4/2 6/6/3
f 9/9/2 8/8/3 18/23/3
f 23/47/5 22/27/5 21/26/5
f 20/25/5 15/48/5 24/49/5
f 24/49/5 21/26/5 20/25/5
