# Blender v2.79 (sub 0) OBJ File: ''
# www.blender.org
mtllib Virus Token.mtl
o Virus_X
v 0.500000 0.030000 -0.380792
v -0.062959 0.030000 0.500000
v 0.500000 0.030000 0.414034
v 0.419177 0.030000 0.500000
v -0.062959 0.000000 0.500000
v 0.419177 0.000000 0.500000
v 0.500000 0.000000 0.414034
v 0.500000 0.000000 -0.380792
v 0.415091 0.000000 -0.479748
v -0.041511 0.000000 -0.481226
v -0.132515 0.000000 -0.391495
v -0.135076 0.000000 0.394540
v 0.415091 0.030000 -0.479748
v -0.041511 0.030000 -0.481226
v -0.132515 0.030000 -0.391495
v -0.135076 0.030000 0.394540
vt 0.183150 0.338536
vt 0.188378 0.360800
vt 0.183150 0.360800
vt 0.371394 0.862133
vt 0.985255 0.112701
vt 0.985256 0.880975
vt 0.990801 0.869762
vt 0.444083 0.973788
vt 0.364359 0.888991
vt 0.188378 0.338536
vt 0.193606 0.354344
vt 0.188378 0.354344
vt 0.188378 0.433913
vt 0.193606 0.448765
vt 0.188378 0.448765
vt 0.183150 0.517560
vt 0.177923 0.416649
vt 0.183150 0.416649
vt 0.183150 0.396087
vt 0.177923 0.338536
vt 0.188378 0.473615
vt 0.183150 0.473615
vt 0.193606 0.433913
vt 0.177923 0.396087
vt 0.188378 0.338536
vt 0.903182 0.017050
vt 0.461833 0.015622
vt 0.907132 0.964070
vt 0.441102 0.964070
vt 0.373870 0.102355
vt 0.364359 0.104972
vt 0.448114 0.007361
vt 0.898507 0.005904
vt 0.988274 0.094414
vt 0.919664 0.973788
vt 0.193606 0.338536
vt 0.177923 0.517560
vn -0.8255 0.0000 0.5645
vn 0.0000 -1.0000 0.0000
vn 0.0000 1.0000 -0.0000
vn -0.7021 0.0000 -0.7121
vn 0.7589 0.0000 -0.6512
vn 1.0000 0.0000 0.0000
vn 0.0000 0.0000 1.0000
vn -1.0000 0.0000 -0.0033
vn 0.0032 0.0000 -1.0000
vn 0.7286 0.0000 0.6850
usemtl Virus_X
s off
f 5/1/1 16/2/1 12/3/1
f 12/4/2 8/5/2 7/6/2
f 16/7/3 4/8/3 3/9/3
f 11/10/4 14/11/4 10/12/4
f 9/13/5 1/14/5 8/15/5
f 8/16/6 3/17/6 7/18/6
f 6/19/7 2/20/7 5/1/7
f 12/3/8 15/21/8 11/22/8
f 10/12/9 13/23/9 9/13/9
f 7/18/10 4/24/10 6/19/10
f 5/1/1 2/25/1 16/2/1
f 9/26/2 8/5/2 10/27/2
f 7/6/2 6/28/2 12/4/2
f 5/29/2 12/4/2 6/28/2
f 11/30/2 10/27/2 8/5/2
f 8/5/2 12/4/2 11/30/2
f 3/9/3 1/31/3 16/7/3
f 13/32/3 14/33/3 1/31/3
f 15/34/3 16/7/3 1/31/3
f 2/35/3 4/8/3 16/7/3
f 1/31/3 14/33/3 15/34/3
f 11/10/4 15/36/4 14/11/4
f 9/13/5 13/23/5 1/14/5
f 8/16/6 1/37/6 3/17/6
f 6/19/7 4/24/7 2/20/7
f 12/3/8 16/2/8 15/21/8
f 10/12/9 14/11/9 13/23/9
f 7/18/10 3/17/10 4/24/10
